<?xml version="1.0" standalone="no"?>
<!DOCTYPE svg PUBLIC "-//W3C//DTD SVG 20010904//EN"
 "http://www.w3.org/TR/2001/REC-SVG-20010904/DTD/svg10.dtd">
<svg version="1.0" xmlns="http://www.w3.org/2000/svg"
 width="1528.000000pt" height="1528.000000pt" viewBox="0 0 1528.000000 1528.000000"
 preserveAspectRatio="xMidYMid meet">
<metadata>
Created by potrace 1.11, written by Peter Selinger 2001-2013
</metadata>
<g transform="translate(0.000000,1528.000000) scale(0.100000,-0.100000)"
fill="#000000" stroke="none">
<path d="M9349 13197 c-27 -20 -48 -73 -59 -144 -14 -92 -27 -167 -40 -233
-95 -502 -103 -726 -31 -867 26 -52 116 -133 146 -133 13 0 27 -4 30 -10 3 -5
37 -10 75 -10 38 0 72 5 75 10 3 6 15 10 25 10 10 0 46 15 79 33 92 49 161
108 268 232 29 32 54 57 57 54 3 -3 8 -28 11 -55 8 -70 25 -123 54 -167 28
-44 100 -97 130 -97 11 0 23 -4 26 -10 3 -6 48 -10 100 -10 52 0 97 4 100 10
3 6 19 10 35 10 16 0 32 5 35 10 3 6 17 10 31 10 13 0 24 5 24 10 0 6 7 10 15
10 14 0 53 18 65 30 3 3 15 11 28 18 56 31 67 38 80 50 8 7 30 25 50 40 21 15
39 29 42 32 3 3 34 30 70 60 63 53 139 130 181 184 20 26 59 36 59 15 0 -13
49 -97 119 -204 39 -60 46 -77 45 -119 0 -45 -4 -53 -39 -83 -21 -18 -44 -33
-52 -33 -7 0 -13 -4 -13 -10 0 -5 -9 -10 -20 -10 -11 0 -20 -4 -20 -10 0 -5
-7 -10 -15 -10 -8 0 -23 -4 -33 -9 -9 -5 -30 -15 -47 -22 -16 -7 -42 -21 -57
-31 -14 -10 -38 -18 -52 -18 -15 0 -30 -8 -36 -19 -14 -27 13 -87 48 -105 15
-8 50 -38 77 -66 62 -65 113 -90 185 -90 61 0 88 13 190 93 81 61 124 65 177
12 28 -28 34 -40 28 -58 -4 -12 -9 -38 -12 -57 -7 -44 -19 -60 -48 -60 -33 0
-88 -41 -107 -80 -15 -29 -18 -62 -18 -186 l0 -151 -30 -6 c-70 -15 -95 -95
-44 -142 l27 -25 301 0 c329 0 334 1 354 58 18 52 -23 112 -77 112 -20 0 -21
5 -21 158 0 139 -2 161 -20 190 -24 39 -70 69 -122 77 -36 6 -38 9 -38 42 0
22 -9 46 -22 63 -13 15 -35 51 -50 79 -37 68 -92 104 -167 109 -66 5 -109 -13
-181 -73 -89 -75 -131 -82 -204 -34 -51 34 -50 46 7 76 74 38 261 195 282 236
16 33 20 107 6 135 -55 109 -74 144 -87 162 -32 41 -104 191 -110 228 l-7 42
81 77 c93 90 108 128 75 185 -32 55 -92 49 -158 -17 -69 -69 -106 -148 -120
-256 -5 -42 -13 -54 -83 -120 -87 -84 -148 -135 -242 -205 -36 -27 -67 -51
-70 -54 -18 -18 -161 -90 -180 -90 -11 0 -22 -4 -25 -10 -3 -5 -19 -10 -35
-10 -16 0 -32 -4 -35 -10 -3 -5 -44 -10 -91 -10 -49 0 -84 4 -84 10 0 6 -9 10
-20 10 -32 0 -96 70 -104 114 -8 44 -12 40 102 124 74 55 169 137 225 196 92
95 132 200 107 278 -18 56 -47 95 -84 113 -33 17 -112 20 -121 5 -3 -5 -17
-10 -31 -10 -13 0 -24 -4 -24 -10 0 -5 -6 -10 -13 -10 -7 0 -32 -16 -55 -36
-84 -72 -172 -211 -202 -319 -8 -27 -19 -60 -25 -72 -35 -67 -291 -332 -323
-333 -4 0 -18 -9 -32 -20 -14 -11 -35 -20 -47 -20 -13 0 -23 -4 -23 -10 0 -14
-116 -12 -143 3 -89 49 -127 135 -127 286 0 76 6 130 30 289 23 146 32 199 40
232 5 19 14 62 20 95 6 33 15 78 20 100 5 22 13 67 20 100 6 33 15 73 20 89
14 43 -10 76 -53 76 -17 0 -39 -6 -48 -13z m1066 -567 c24 -46 18 -82 -23
-146 -41 -63 -88 -108 -182 -174 -19 -13 -44 -32 -54 -42 -30 -27 -39 -22 -33
20 18 137 113 305 202 359 37 22 73 16 90 -17z"/>
<path d="M5528 13163 c-55 -59 -63 -100 -78 -428 -15 -307 -51 -695 -79 -860
-23 -132 -24 -146 -11 -170 7 -14 19 -25 27 -25 7 0 13 -4 13 -10 0 -16 39
-11 60 8 10 9 44 61 75 115 103 178 193 302 339 464 49 55 165 143 188 143 29
0 45 -40 58 -150 14 -119 33 -223 48 -261 16 -39 62 -89 83 -89 10 0 19 -4 19
-10 0 -6 31 -10 74 -10 41 0 78 5 81 10 3 6 19 10 35 10 16 0 32 5 35 10 3 6
15 10 26 10 10 0 19 5 19 10 0 6 9 10 20 10 11 0 20 3 20 8 0 4 12 13 28 19
15 7 59 37 97 68 107 84 110 84 95 4 -17 -90 23 -218 81 -260 29 -20 119 -27
119 -9 0 6 11 10 24 10 14 0 28 5 31 10 3 6 15 10 26 10 10 0 19 5 19 10 0 6
5 10 11 10 23 0 130 84 214 169 49 50 92 91 96 91 3 0 14 -18 24 -39 40 -90
122 -141 226 -141 39 0 69 4 69 10 0 6 11 10 24 10 57 0 190 89 330 221 48 46
85 74 90 69 6 -6 4 -60 -4 -137 -15 -149 -11 -275 10 -318 12 -23 23 -31 49
-33 18 -2 38 1 44 7 6 6 19 11 29 11 11 0 20 10 23 28 28 136 125 360 199 459
54 71 150 162 192 182 16 7 37 17 46 22 10 5 28 9 41 9 13 0 27 4 33 10 5 5
47 10 93 12 83 3 85 4 94 32 8 24 6 32 -16 52 -15 13 -35 24 -46 24 -11 0 -23
5 -26 10 -8 12 -129 13 -153 1 -9 -5 -30 -14 -47 -21 -30 -12 -51 -23 -90 -44
-85 -47 -229 -231 -303 -388 -20 -43 -42 -78 -48 -78 -15 0 5 168 37 300 6 25
18 87 27 137 l16 93 -24 25 c-28 29 -60 32 -83 7 -20 -22 -47 -106 -47 -148 0
-57 -63 -134 -219 -264 -29 -25 -58 -47 -65 -49 -6 -2 -13 -8 -16 -12 -9 -14
-121 -69 -140 -69 -11 0 -22 -4 -25 -10 -3 -5 -32 -10 -63 -10 -49 0 -63 4
-94 30 -80 66 -93 149 -48 330 31 126 31 142 4 197 -33 68 -63 83 -166 83 -43
0 -86 -4 -96 -9 -9 -5 -24 -12 -32 -15 -76 -28 -209 -135 -280 -226 -62 -79
-193 -210 -260 -261 -80 -60 -215 -129 -252 -129 -16 0 -28 -4 -28 -10 0 -6
-28 -10 -64 -10 -59 0 -66 2 -84 28 -23 34 -38 92 -52 207 -22 180 -38 243
-73 283 -21 23 -64 29 -95 13 -9 -5 -34 -16 -54 -25 -43 -19 -135 -92 -197
-156 -56 -59 -186 -219 -236 -293 -21 -32 -45 -63 -52 -69 -21 -17 -30 25 -21
100 10 87 23 215 42 437 24 261 36 375 46 415 5 19 13 54 19 76 17 64 14 98
-12 122 -31 29 -58 28 -89 -5z m1909 -640 c13 -33 14 -49 3 -123 -12 -82 -17
-98 -47 -168 -31 -72 -100 -156 -173 -212 -25 -19 -47 -37 -50 -40 -13 -13
-94 -50 -110 -50 -11 0 -22 -4 -25 -10 -3 -5 -24 -10 -45 -10 -36 0 -41 3 -55
36 -8 20 -15 49 -15 64 0 60 63 212 133 320 37 57 163 181 202 199 17 7 37 17
45 22 8 4 39 8 68 8 52 1 53 0 69 -36z"/>
<path d="M4765 13140 c-3 -5 -17 -10 -31 -10 -13 0 -32 -4 -42 -9 -9 -5 -28
-13 -42 -19 -44 -18 -134 -62 -180 -88 -177 -102 -393 -336 -470 -509 -68
-153 -79 -193 -100 -341 -20 -139 16 -290 87 -369 36 -39 87 -75 107 -75 9 0
16 -4 16 -10 0 -5 13 -10 29 -10 17 0 33 -4 36 -10 4 -6 53 -10 116 -10 66 0
109 4 109 10 0 6 18 10 39 10 22 0 43 5 46 10 3 6 17 10 31 10 13 0 32 4 42 9
9 5 28 13 42 19 93 37 262 126 294 155 11 9 24 17 28 17 5 0 18 9 30 20 12 11
28 20 35 20 7 0 13 4 13 8 0 4 12 15 28 24 15 9 38 26 52 38 14 12 41 34 60
48 19 15 70 60 113 102 108 103 139 169 101 211 -15 17 -20 14 -85 -48 -37
-36 -79 -73 -91 -81 -13 -9 -29 -22 -36 -29 -8 -7 -30 -26 -50 -41 -21 -15
-39 -29 -42 -32 -3 -3 -21 -17 -40 -30 -19 -13 -37 -27 -40 -30 -11 -14 -160
-110 -170 -110 -5 0 -10 -3 -10 -7 0 -5 -10 -13 -23 -19 -12 -6 -51 -26 -87
-44 -36 -18 -76 -37 -90 -42 -14 -6 -33 -14 -42 -19 -10 -5 -27 -9 -37 -9 -11
0 -23 -4 -26 -10 -3 -5 -21 -10 -40 -10 -19 0 -37 -4 -40 -10 -3 -6 -48 -10
-100 -10 -52 0 -97 4 -100 10 -3 6 -15 10 -26 10 -11 0 -41 21 -67 48 -85 84
-93 190 -34 422 43 169 188 392 328 505 27 21 51 42 54 45 11 14 99 70 109 70
6 0 11 3 11 8 0 8 49 32 67 32 7 0 13 5 13 10 0 6 9 10 19 10 11 0 23 5 26 10
3 6 17 10 30 10 13 0 27 5 30 10 10 16 108 12 143 -6 33 -16 33 -31 0 -66 -76
-79 -98 -113 -98 -148 0 -74 71 -95 132 -37 53 49 123 173 123 218 0 44 -56
132 -95 150 -14 6 -33 15 -42 20 -24 12 -155 11 -163 -1z"/>
<path d="M8205 11614 c-22 -2 -96 -9 -165 -14 -426 -37 -881 -146 -1320 -317
-134 -53 -462 -210 -593 -285 -752 -428 -1378 -1052 -1809 -1804 l-75 -129
-369 0 -369 0 -1 25 c-1 14 -2 199 -3 413 l-1 387 -345 0 -345 0 -2 -372 c-1
-205 -2 -391 -2 -413 l-1 -40 -65 0 c-59 0 -65 2 -63 20 2 11 3 164 3 339 0
217 -4 324 -11 333 -17 20 -385 19 -392 -1 -6 -15 -10 -634 -5 -671 3 -19 -3
-20 -92 -20 l-95 0 -3 53 -3 52 -77 0 c-42 0 -84 5 -92 10 -13 8 -16 68 -20
404 -3 217 -9 398 -13 403 -11 11 -1313 11 -1324 0 -4 -5 -9 -185 -11 -400 -3
-350 -5 -393 -19 -404 -10 -8 -48 -13 -95 -13 l-78 0 0 -55 0 -55 -175 0
c-164 0 -175 -1 -175 -19 0 -10 42 -60 94 -111 81 -79 95 -98 98 -129 l3 -36
802 -3 c690 -2 803 -4 803 -16 0 -8 -5 -18 -11 -22 -6 -3 -9 -19 -6 -34 8 -36
-8 -50 -59 -50 -93 0 -144 -47 -144 -132 0 -74 37 -95 255 -144 128 -29 246
-75 334 -131 43 -28 57 -44 74 -86 34 -81 158 -329 178 -356 36 -46 18 1 -35
92 -59 102 -65 115 -127 272 -48 123 -134 259 -203 323 -24 22 -86 62 -136 87
-82 41 -112 66 -97 81 11 11 246 -118 282 -154 67 -67 151 -208 290 -484 76
-150 151 -293 168 -318 88 -131 127 -176 166 -193 43 -19 85 -63 75 -79 -13
-20 -49 -26 -71 -12 -21 13 -23 13 -23 -3 0 -10 -23 -39 -51 -65 -48 -44 -51
-50 -44 -80 4 -18 9 -109 10 -203 4 -185 16 -363 45 -665 11 -107 24 -256 30
-330 6 -74 17 -165 26 -202 15 -73 40 -340 74 -793 38 -510 70 -759 145 -1140
46 -234 77 -325 126 -367 22 -19 146 -61 234 -79 103 -21 275 -14 388 15 198
51 319 109 662 318 176 107 408 246 515 308 226 131 313 189 399 267 57 51
364 263 382 263 4 0 17 16 29 35 25 40 39 43 65 15 22 -25 37 -25 58 -2 21 23
21 48 1 124 -8 33 -14 70 -12 82 3 17 8 13 31 -25 15 -26 37 -74 48 -108 12
-33 26 -61 33 -61 7 0 24 12 38 28 21 22 27 41 32 102 12 137 38 184 49 88 11
-86 8 -145 -9 -207 -15 -51 -15 -64 -3 -102 8 -26 21 -45 31 -47 9 -2 44 15
78 38 43 29 60 36 60 25 0 -8 -25 -78 -56 -156 -62 -157 -63 -183 -14 -202 36
-14 37 -28 8 -67 -31 -42 -34 -101 -20 -375 4 -93 5 -173 2 -177 -3 -3 -32 18
-65 48 l-59 55 -13 167 c-7 92 -12 226 -12 297 0 72 -5 157 -11 190 -5 33 -10
77 -10 97 0 51 -16 56 -41 14 -12 -20 -25 -36 -30 -36 -5 0 -16 14 -24 31
l-16 31 -47 -44 c-61 -56 -149 -118 -289 -202 -62 -37 -113 -70 -113 -73 0
-11 222 -252 306 -333 724 -692 1582 -1071 2581 -1140 560 -39 1177 58 1718
271 1170 458 2065 1439 2414 2645 257 889 200 1864 -160 2707 -212 496 -498
919 -880 1298 -1213 1206 -3052 1516 -4603 775 -606 -289 -1161 -759 -1557
-1317 l-47 -66 -203 -6 c-348 -12 -489 -9 -489 8 0 8 31 66 70 130 391 647
946 1201 1595 1591 556 333 1187 547 1865 631 211 26 832 26 1040 0 1069 -135
1973 -565 2724 -1297 1045 -1018 1551 -2469 1365 -3915 -239 -1862 -1573
-3400 -3379 -3896 -1124 -308 -2334 -181 -3365 355 -533 277 -1021 664 -1393
1104 -53 64 -109 129 -123 146 l-27 30 -67 -28 c-37 -16 -69 -35 -72 -43 -17
-43 464 -557 722 -772 664 -552 1450 -916 2278 -1056 269 -45 403 -57 717 -62
311 -6 483 2 722 33 819 105 1614 430 2273 929 190 143 291 231 464 400 804
786 1283 1760 1427 2905 21 172 30 724 14 917 -51 637 -213 1221 -492 1778
-104 208 -149 286 -276 479 -186 285 -350 491 -582 729 -102 106 -318 306
-370 345 -3 2 -7 61 -10 130 l-5 127 -55 0 -55 0 -3 -72 c-2 -40 -5 -73 -7
-73 -2 0 -39 26 -82 59 -665 499 -1486 819 -2353 917 -127 15 -707 27 -805 18z
m296 -1229 c12 -13 16 -28 12 -43 -7 -28 6 -28 53 -1 20 11 64 24 98 29 33 5
86 16 116 24 121 35 274 14 428 -59 141 -68 205 -118 407 -316 116 -113 209
-195 260 -229 44 -28 82 -53 84 -55 2 -2 -8 -18 -23 -35 -33 -40 -33 -46 2
-53 37 -9 56 -23 48 -36 -11 -16 -36 -13 -36 5 0 8 -13 20 -30 25 -36 13 -36
13 -9 51 12 16 20 31 18 33 -2 1 -33 20 -69 40 -45 26 -122 94 -250 219 -233
230 -334 313 -415 344 -41 16 -271 62 -308 62 -16 0 -100 -21 -186 -46 -211
-63 -209 -63 -217 -28 -16 66 -21 68 -64 23 -33 -35 -41 -39 -59 -30 -16 9
-22 8 -31 -8 -5 -11 -10 -26 -10 -34 0 -26 -28 -39 -102 -48 -93 -12 -158 -44
-231 -115 -59 -58 -178 -222 -237 -326 -32 -58 -57 -78 -45 -35 4 12 20 42 35
67 16 25 43 75 60 112 31 64 103 144 235 261 47 41 145 77 209 77 45 0 56 10
56 51 0 14 7 19 30 19 23 0 33 6 42 25 7 16 19 25 35 25 17 0 30 11 46 38 21
36 22 36 25 12 2 -14 12 -34 23 -45z m89 -471 c77 -78 316 -219 393 -231 l39
-6 -7 47 c-4 25 -5 46 -2 46 3 0 43 -16 89 -37 46 -20 115 -44 155 -54 79 -20
193 -64 293 -112 59 -29 66 -36 77 -74 13 -46 17 -110 15 -221 -2 -69 -4 -75
-34 -102 -31 -29 -32 -30 -13 -45 11 -8 23 -15 28 -15 12 0 8 -37 -6 -48 -9
-8 -32 -8 -79 0 -81 13 -162 4 -220 -25 -43 -22 -46 -29 -33 -79 6 -24 3 -29
-21 -38 -54 -21 -59 -67 -14 -128 33 -46 67 -58 55 -19 -18 60 -18 63 14 76
35 15 51 8 44 -18 -6 -25 38 -71 67 -71 32 0 60 18 70 46 l10 25 39 -23 c50
-29 61 -19 30 27 -31 46 -106 82 -187 91 -34 4 -65 11 -68 15 -9 15 95 10 184
-7 68 -14 89 -23 120 -51 53 -48 69 -42 114 47 21 41 42 89 47 105 l9 30 1
-29 c1 -32 -34 -110 -110 -246 -59 -106 -75 -156 -89 -264 -8 -66 -18 -98 -42
-139 -17 -28 -46 -97 -64 -152 -53 -163 -61 -181 -161 -384 -84 -171 -103
-201 -157 -255 -81 -80 -186 -138 -344 -189 -111 -36 -139 -41 -217 -41 -68 0
-106 6 -155 24 -89 31 -210 93 -250 126 -64 54 -195 211 -222 265 -37 76 -61
183 -53 238 12 80 63 204 106 256 23 27 49 65 59 85 10 19 30 45 44 57 52 45
43 109 -32 238 l-47 80 -3 152 c-3 137 -1 156 18 202 25 57 99 131 130 131 12
0 35 -7 52 -16 46 -24 132 -15 194 19 160 89 170 92 294 91 138 -1 183 -15
251 -79 31 -29 57 -45 73 -45 86 0 19 176 -96 257 -39 26 -48 28 -137 27 -87
0 -109 -5 -239 -48 -79 -26 -155 -46 -170 -44 -25 3 -20 7 46 52 39 27 72 52
72 56 0 4 -29 19 -64 34 -80 34 -178 131 -195 192 -15 53 -14 106 2 128 13 17
21 18 136 6 143 -15 155 -11 117 45 -52 76 -23 88 44 19z m-6835 -64 c8 -13 8
-638 0 -650 -10 -16 -1068 -13 -1083 2 -17 17 -17 629 0 646 16 16 1073 17
1083 2z m1645 -370 l0 -320 -250 0 -250 0 0 320 0 320 250 0 250 0 0 -320z
m-909 170 l119 0 0 -214 0 -215 -132 -3 c-73 -2 -137 0 -141 3 -9 7 -11 415
-1 430 3 6 13 8 21 5 8 -3 68 -6 134 -6z m5179 -80 c-8 -34 -16 -48 -22 -42
-7 7 -5 21 6 43 9 18 16 39 16 47 0 9 3 13 6 9 3 -3 1 -29 -6 -57z m2241 5
c-18 -8 -43 -15 -55 -15 -18 1 -16 3 9 15 17 7 41 14 55 14 22 0 22 -1 -9 -14z
m-109 -160 c23 -65 38 -235 21 -235 -6 0 -13 35 -16 78 -3 43 -16 111 -31 155
-30 90 -31 96 -11 76 8 -8 25 -42 37 -74z m-2122 -22 c0 -49 -7 -63 -23 -46
-4 3 -2 12 4 20 8 9 8 25 0 57 -15 60 -13 76 4 46 8 -14 14 -49 15 -77z m-45
-33 c3 -5 -7 -12 -22 -16 -125 -27 -177 -117 -177 -304 1 -196 65 -344 163
-375 23 -7 23 -9 17 -79 -6 -63 -60 -330 -101 -502 -8 -33 -15 -71 -15 -84 0
-15 -4 -20 -9 -15 -17 17 5 158 64 424 14 63 25 133 25 155 0 39 -3 44 -52 76
-32 22 -61 51 -74 75 -34 63 -67 268 -62 384 6 159 55 232 174 260 53 12 62
13 69 1z m-24 -100 c45 -25 78 -139 62 -215 -12 -55 -28 -45 -29 18 0 28 -1
63 -2 76 -3 33 -64 91 -96 91 -27 0 -37 24 -13 33 21 9 58 7 78 -3z m-5110
-106 c17 -21 0 -49 -31 -49 -31 0 -48 28 -31 49 8 9 21 16 31 16 10 0 23 -7
31 -16z m660 -49 c-1 -15 -24 -12 -29 3 -3 9 2 13 12 10 10 -1 17 -7 17 -13z
m6656 -22 c-3 -10 -5 -4 -5 12 0 17 2 24 5 18 2 -7 2 -21 0 -30z m-3957 -51
c0 -5 -40 -47 -89 -95 l-88 -87 -2734 0 -2734 1 -88 84 c-48 47 -85 90 -82 95
7 12 5815 14 5815 2z m-191 -211 c8 -5 11 -16 8 -25 -6 -15 -242 -16 -2726
-16 -1885 0 -2722 3 -2726 10 -4 6 -4 17 -1 25 5 13 356 15 2718 15 1553 0
2719 -4 2727 -9z m-1584 -71 c11 -18 -27 -67 -64 -83 -20 -9 -55 -36 -77 -59
-39 -41 -40 -44 -24 -60 17 -15 18 -14 24 16 8 41 35 66 111 104 108 54 222
85 290 78 72 -7 82 -15 66 -54 -19 -45 -69 -91 -136 -124 -106 -53 -215 -120
-215 -133 0 -7 -3 -27 -6 -44 -9 -45 10 -39 40 14 31 53 80 87 200 143 57 27
96 40 111 36 17 -4 28 2 44 24 33 47 38 89 12 116 -12 12 -18 26 -14 29 10 11
493 8 493 -2 0 -5 -34 -78 -75 -163 -214 -436 -345 -898 -397 -1398 -19 -183
-16 -638 6 -823 17 -153 51 -355 60 -364 3 -3 46 32 96 78 50 46 112 95 138
108 26 13 117 80 202 148 85 69 173 134 195 145 22 11 67 44 100 73 65 57 170
115 208 115 12 0 47 -9 77 -19 64 -23 78 -16 60 29 -7 17 -10 33 -7 37 18 18
459 141 652 182 145 31 264 46 276 34 6 -6 -18 -16 -73 -28 -88 -20 -257 -76
-373 -125 -38 -16 -101 -41 -140 -56 -38 -15 -109 -46 -157 -70 -129 -65 -164
-123 -131 -220 14 -41 3 -59 -31 -50 -19 5 -31 18 -42 46 -9 23 -25 42 -37 46
-12 4 -40 19 -61 35 -22 16 -49 29 -61 29 -12 0 -69 -38 -128 -85 -119 -96
-779 -736 -827 -803 -17 -23 -53 -70 -81 -105 -27 -34 -55 -79 -61 -100 -14
-46 -41 -67 -88 -67 -64 0 -65 -2 -51 -152 6 -73 14 -152 18 -175 3 -28 1 -43
-6 -43 -17 0 -68 110 -76 163 -14 90 -65 126 -117 82 -18 -15 -34 -23 -35 -18
-5 14 55 181 82 228 l23 40 -29 140 c-19 91 -33 202 -40 315 -6 96 -24 283
-40 415 -60 503 -84 816 -76 992 10 219 95 605 163 747 24 49 44 103 44 120 0
38 -10 26 -40 -49 -13 -33 -50 -105 -82 -160 -103 -175 -129 -235 -145 -342
-8 -54 -20 -115 -25 -135 -9 -31 -8 -40 11 -64 32 -41 24 -104 -14 -104 -7 0
-24 33 -40 73 -15 39 -32 76 -36 82 -5 5 -9 21 -9 35 0 42 60 330 80 382 10
26 64 113 120 193 56 80 100 148 97 151 -3 3 -15 -10 -28 -28 -57 -82 -121
-148 -145 -148 -17 0 -24 -6 -24 -19 0 -10 -7 -24 -15 -31 -8 -7 -15 -27 -15
-45 0 -17 -11 -63 -24 -101 -14 -38 -35 -112 -47 -164 -22 -97 -61 -200 -76
-201 -4 0 -60 -2 -123 -4 -74 -2 -129 -9 -155 -19 l-40 -16 35 6 c19 3 88 8
152 11 109 4 118 3 138 -17 47 -47 27 -52 -270 -74 -258 -20 -342 -30 -478
-58 -91 -18 -127 -19 -110 -3 8 8 162 51 253 70 99 21 207 54 180 54 -11 0
-56 -4 -99 -8 -43 -5 -134 -5 -201 -1 -120 7 -124 8 -164 41 -50 40 -167 192
-233 303 -39 64 -46 82 -37 98 9 16 6 24 -10 42 -12 12 -21 28 -21 34 0 7 -7
12 -15 12 -17 0 -32 28 -91 168 -52 124 -156 284 -225 346 -31 28 -76 55 -121
72 -81 31 -145 82 -135 107 5 14 22 17 99 18 51 0 102 4 113 9 29 13 1992 13
2000 0z m-2294 -135 c24 -9 46 -19 49 -24 3 -4 34 -22 70 -39 69 -33 123 -77
118 -94 -6 -17 -70 -48 -100 -48 -40 0 -194 37 -231 56 -94 48 -103 107 -22
149 38 19 61 19 116 0z m5685 -884 c-3 -169 -6 -195 -25 -234 -11 -24 -21 -50
-21 -58 0 -15 212 -257 288 -328 74 -70 276 -216 384 -279 54 -31 147 -85 205
-119 59 -35 112 -63 119 -63 22 0 26 -21 8 -41 -9 -10 -24 -19 -32 -19 -9 0
-138 34 -289 76 -150 41 -278 72 -284 68 -8 -4 -9 -26 -4 -68 7 -66 66 -357
89 -445 27 -97 4 -86 -85 42 -23 33 -78 98 -123 146 -112 121 -330 369 -455
517 -64 77 -111 124 -122 124 -28 0 -23 -18 11 -47 16 -13 83 -86 147 -161 65
-76 158 -182 208 -237 72 -80 354 -414 437 -518 10 -12 32 -73 50 -136 18 -63
38 -116 44 -118 11 -4 145 113 361 314 73 68 139 123 147 123 8 0 111 -81 230
-180 118 -99 220 -180 225 -180 11 0 25 83 46 280 9 80 22 154 30 166 7 12 79
84 159 160 80 76 146 142 146 147 0 23 -39 -7 -153 -118 -123 -120 -160 -148
-137 -106 13 25 40 166 40 210 l0 34 -58 -7 c-32 -4 -134 -24 -227 -46 -93
-22 -171 -38 -174 -35 -3 3 23 31 57 61 119 106 272 268 263 277 -5 5 -50 -32
-112 -94 -57 -56 -137 -129 -177 -161 l-73 -58 -57 7 c-44 5 -72 16 -127 53
-38 26 -128 78 -200 115 -157 83 -267 156 -411 275 -143 119 -140 114 -121
198 37 159 81 372 90 432 11 74 20 91 36 61 6 -11 33 -35 59 -52 26 -18 81
-64 122 -102 91 -85 155 -128 313 -208 154 -78 282 -114 380 -104 67 6 67 6
67 -19 0 -14 -31 -128 -70 -252 -69 -225 -82 -290 -57 -282 6 2 55 86 107 187
52 100 109 196 127 214 35 36 141 112 147 106 3 -2 0 -38 -4 -79 -5 -41 -9
-92 -10 -113 0 -34 2 -37 23 -35 18 2 49 -21 131 -99 106 -102 120 -119 69
-86 -37 25 -27 4 37 -72 37 -44 62 -65 78 -65 13 0 22 6 22 16 0 13 5 12 26
-5 15 -12 34 -21 43 -21 10 0 4 -8 -15 -19 -30 -18 -31 -22 -38 -107 -4 -49
-18 -159 -31 -244 -13 -85 -29 -215 -35 -288 -13 -159 -20 -199 -99 -535 -40
-168 -71 -276 -89 -310 -39 -75 -153 -235 -426 -599 -212 -283 -273 -355 -252
-302 8 21 32 360 46 654 6 124 15 306 20 405 13 235 24 751 17 745 -3 -3 -8
-50 -11 -105 -3 -55 -10 -165 -16 -245 -5 -80 -14 -239 -20 -355 -6 -115 -13
-244 -15 -285 -12 -182 -35 -664 -36 -752 -1 -74 -4 -98 -15 -98 -7 0 -16 4
-19 10 -3 5 -144 122 -313 259 -276 223 -316 259 -385 347 -42 55 -95 120
-117 145 -39 44 -42 53 -84 240 -24 107 -72 293 -106 414 -34 121 -81 301
-105 400 -24 99 -62 248 -85 330 -57 211 -120 533 -122 622 -1 41 -5 76 -8 78
-14 9 -136 -73 -202 -135 l-68 -65 -20 -130 c-11 -71 -27 -197 -35 -280 -20
-189 -46 -353 -85 -531 -17 -76 -46 -213 -66 -304 -20 -91 -47 -205 -60 -255
-34 -126 -32 -140 21 -205 24 -30 42 -56 40 -58 -6 -7 -44 20 -92 65 l-42 39
15 65 c58 243 86 386 95 478 6 58 19 185 30 281 45 408 68 663 71 775 l3 120
155 76 c85 42 182 86 215 98 129 46 239 168 325 358 40 88 53 128 60 195 5 45
14 99 20 118 5 19 10 54 10 77 0 24 2 43 4 43 3 0 3 -85 2 -189z m-3670 -387
c4 -15 4 -101 0 -193 -3 -91 -9 -238 -12 -326 -14 -372 -21 -342 -23 98 -1
389 1 447 14 447 8 0 18 -12 21 -26z m-196 -74 c8 -5 12 -12 9 -15 -8 -8 -39
5 -39 16 0 11 11 11 30 -1z m-47 -7 c-23 -9 -14 -23 27 -40 47 -21 49 -27 16
-48 -37 -25 -85 4 -86 51 0 24 18 44 40 43 10 0 11 -2 3 -6z m-769 -135 c3
-13 10 -93 16 -178 7 -85 18 -200 25 -255 16 -112 41 -480 50 -745 4 -96 10
-209 15 -250 14 -137 40 -334 56 -423 8 -49 19 -168 24 -265 6 -98 16 -247 25
-332 8 -85 17 -213 21 -285 8 -167 45 -388 90 -540 55 -180 74 -218 133 -260
28 -20 51 -40 51 -45 0 -14 -83 10 -128 36 -87 51 -108 107 -162 449 -81 507
-119 839 -175 1505 -9 102 -22 237 -30 300 -25 211 -28 283 -25 635 3 436 4
387 -5 543 -6 96 -5 132 3 132 7 0 14 -10 16 -22z m3843 -184 c-3 -3 -12 -4
-19 -1 -8 3 -5 6 6 6 11 1 17 -2 13 -5z m-3031 -109 c25 -19 14 -19 -22 0 -16
8 -22 15 -13 15 8 0 24 -7 35 -15z m-52 -18 c-3 -9 9 -18 36 -27 45 -15 46
-17 23 -42 -20 -22 -42 -23 -71 -2 -21 15 -31 62 -15 77 12 12 32 7 27 -6z
m5780 -52 c16 -14 26 -25 21 -25 -4 0 -20 11 -37 25 -16 14 -26 25 -21 25 4 0
21 -11 37 -25z m283 -129 c43 -18 122 -36 255 -56 188 -28 528 -93 570 -109
15 -5 -5 -10 -63 -14 -46 -4 -102 -12 -124 -18 -21 -6 -61 -8 -87 -5 l-48 7 0
-81 c0 -44 -2 -80 -5 -80 -3 0 -30 20 -61 46 -36 29 -64 44 -78 42 -20 -3 -21
-9 -24 -113 -1 -60 -7 -114 -12 -119 -5 -5 -15 4 -23 20 -21 41 -165 236 -184
252 -9 6 -23 12 -30 12 -19 0 -17 -95 6 -220 11 -58 36 -195 55 -305 20 -110
50 -251 66 -314 17 -62 30 -118 30 -122 0 -5 -35 -34 -77 -65 -43 -31 -104
-77 -136 -101 -66 -50 -87 -50 -41 0 48 51 170 210 177 231 7 18 -52 393 -98
621 -13 66 -34 181 -45 255 -29 188 -26 180 -78 229 -51 47 -45 48 55 7z
m-967 -149 c0 -18 -7 -42 -15 -53 -15 -18 -15 -16 -9 26 10 68 24 84 24 27z
m1986 -62 c55 -14 140 -41 189 -60 50 -19 96 -35 103 -35 6 0 12 -3 12 -7 -2
-28 -28 -185 -32 -189 -6 -6 -68 100 -68 116 0 5 -17 28 -37 51 -40 44 -96 76
-183 104 -30 10 -59 21 -65 25 -5 4 -19 10 -30 13 -14 3 -15 5 -4 6 9 0 61
-10 115 -24z m495 -201 c22 -14 66 -49 98 -78 31 -29 85 -72 119 -95 95 -64
122 -97 188 -226 80 -157 92 -196 97 -340 4 -110 8 -131 48 -245 l43 -125 4
-227 c3 -198 2 -233 -13 -273 -10 -25 -22 -45 -27 -45 -6 0 -7 78 -3 210 7
181 6 213 -7 228 -10 11 -18 50 -22 117 -4 55 -11 103 -15 108 -4 4 -50 -13
-102 -37 -52 -24 -97 -42 -102 -39 -4 2 3 19 15 36 13 18 46 65 75 105 85 119
92 182 22 182 -33 0 -35 9 -14 70 23 66 18 99 -30 198 -37 77 -59 106 -133
180 -86 85 -227 192 -254 192 -7 0 -25 -14 -40 -32 l-27 -33 -1 34 c0 52 21
161 31 161 5 0 28 -12 50 -26z m-2006 -1166 c-10 -50 -143 -602 -166 -693 -12
-44 -81 -260 -154 -480 -79 -238 -140 -438 -150 -495 -10 -52 -28 -138 -41
-190 -12 -52 -32 -138 -44 -190 -11 -52 -22 -105 -25 -117 -5 -21 -11 -23 -80
-23 -40 0 -76 3 -78 8 -4 7 8 126 38 367 38 312 55 470 65 613 15 230 16 223
-30 281 -36 45 -39 52 -23 58 29 10 53 35 89 91 19 29 67 94 107 145 128 161
229 298 270 366 55 91 205 291 218 291 7 0 8 -12 4 -32z m577 -195 l146 -148
-233 -468 c-217 -435 -299 -587 -317 -587 -14 0 -9 15 68 186 42 93 94 214
116 269 37 93 60 152 182 469 l46 120 -21 40 c-11 22 -47 82 -79 133 -60 95
-78 133 -63 133 5 0 74 -66 155 -147z m-2030 -4 c72 -94 233 -250 471 -459
104 -90 217 -198 253 -239 64 -74 64 -75 64 -136 0 -101 -25 -406 -56 -685 -8
-74 -17 -175 -20 -225 -3 -49 -9 -124 -12 -165 l-7 -75 -90 3 c-53 2 -95 9
-103 16 -7 7 -17 52 -22 100 -6 48 -17 100 -24 114 -8 15 -24 65 -36 112 -12
47 -32 119 -45 160 -14 41 -36 122 -50 180 -67 269 -202 694 -255 800 -21 42
-50 116 -65 165 -14 50 -40 134 -56 189 -33 107 -60 246 -51 260 6 10 15 -1
104 -115z m-720 92 c134 -45 133 -53 -17 -255 -158 -212 -166 -236 -120 -345
44 -105 206 -566 203 -578 -2 -7 -68 103 -148 244 -80 141 -171 297 -202 347
-32 49 -58 98 -58 107 0 11 25 35 63 61 34 23 98 78 142 122 44 45 108 106
143 135 51 44 62 60 60 80 -3 26 -12 33 -108 76 -65 29 -39 33 42 6z m3905
-583 c-3 -8 -6 -5 -6 6 -1 11 2 17 5 13 3 -3 4 -12 1 -19z m-27 -215 c-25
-193 -38 -250 -80 -353 -27 -64 -29 -81 -24 -135 6 -61 6 -63 -30 -102 -19
-22 -63 -54 -96 -72 l-60 -32 -28 20 c-57 40 -57 41 35 115 69 55 90 79 110
123 28 61 42 166 24 177 -19 12 -12 22 37 53 l49 30 17 89 c19 100 46 232 52
253 3 8 7 11 10 8 3 -3 -4 -81 -16 -174z"/>
<path d="M9000 9510 c0 -6 8 -13 18 -16 51 -15 102 -51 142 -100 25 -31 81
-93 126 -139 93 -96 131 -112 191 -80 58 32 41 52 -47 54 -56 1 -81 19 -143
102 -68 90 -125 146 -172 169 -44 21 -115 27 -115 10z"/>
<path d="M9330 9444 c0 -29 56 -72 114 -89 59 -17 116 -13 116 9 0 16 -43 36
-78 36 -30 0 -106 32 -116 49 -11 17 -36 13 -36 -5z"/>
<path d="M8562 9159 c-63 -12 -122 -48 -159 -98 -63 -81 -24 -96 105 -41 39
16 73 30 75 30 3 0 8 -12 12 -27 11 -46 43 -73 86 -73 44 0 74 25 83 72 5 27
9 30 33 24 16 -4 45 -9 66 -13 33 -5 37 -3 37 15 0 14 -14 30 -44 47 -94 55
-211 81 -294 64z"/>
<path d="M8946 9091 c-3 -5 -11 -78 -16 -163 -12 -168 -25 -261 -43 -294 -7
-12 -32 -37 -57 -56 -25 -18 -53 -50 -63 -70 -17 -35 -17 -39 -1 -73 16 -34
65 -71 77 -58 3 3 -1 16 -10 30 -28 42 16 90 98 107 23 5 27 13 42 93 9 49 30
155 46 238 17 82 31 158 31 168 0 10 -15 34 -34 53 -33 33 -59 43 -70 25z"/>
<path d="M8416 8409 c28 -32 149 -111 232 -153 95 -48 148 -56 182 -27 l25 22
-22 15 c-12 9 -88 38 -169 66 -81 27 -172 61 -202 74 -67 29 -70 30 -46 3z"/>
<path d="M8885 8410 c-7 -11 3 -15 45 -23 14 -2 33 -8 43 -12 24 -10 23 21 -2
35 -25 13 -78 13 -86 0z"/>
<path d="M9080 8357 c0 -17 47 -43 57 -33 8 8 -32 46 -48 46 -5 0 -9 -6 -9
-13z"/>
<path d="M8450 8230 c-24 -24 -27 -80 -5 -80 10 0 15 10 15 28 0 15 7 38 16
50 19 28 1 29 -26 2z"/>
<path d="M8902 8223 c-7 -3 -19 -18 -27 -33 -13 -26 -13 -30 1 -44 24 -25 71
-20 99 10 27 29 33 54 13 54 -7 0 -24 -12 -37 -25 -13 -14 -29 -25 -37 -25
-17 0 -17 5 -3 31 12 24 9 38 -9 32z"/>
<path d="M9036 8193 c-11 -28 26 -67 85 -87 63 -22 264 -35 281 -18 7 7 -2 14
-33 22 -24 6 -101 31 -170 56 -141 49 -154 51 -163 27z"/>
<path d="M8592 8158 c-43 -43 19 -80 305 -184 126 -45 153 -51 153 -34 0 12
-31 27 -233 111 -122 51 -150 67 -163 90 -15 30 -42 37 -62 17z"/>
<path d="M8663 7939 c-18 -18 -16 -37 5 -43 9 -3 54 -6 99 -8 108 -3 128 13
46 37 -82 25 -135 29 -150 14z"/>
<path d="M2182 8717 l-23 -13 26 -12 c32 -15 48 -15 40 -2 -4 6 -1 17 5 25 10
12 9 15 -6 15 -11 -1 -29 -6 -42 -13z"/>
<path d="M2422 8718 c-7 -7 -12 -22 -12 -35 0 -20 18 -32 128 -83 159 -76 252
-123 320 -163 44 -26 53 -36 49 -55 -3 -17 0 -22 11 -20 8 2 18 10 22 18 39
79 38 85 -18 94 -21 3 -65 20 -98 37 -143 77 -204 106 -282 138 -85 34 -94 46
-51 68 23 12 22 13 -16 13 -23 0 -46 -5 -53 -12z"/>
<path d="M2665 8690 c154 -46 353 -144 394 -194 7 -9 20 -16 29 -16 8 0 99
-35 200 -77 128 -53 186 -82 190 -95 3 -14 14 -18 48 -18 24 0 44 -3 44 -6 0
-3 -21 -33 -46 -66 -25 -33 -43 -62 -41 -65 3 -2 31 22 64 54 32 32 84 79 114
105 31 25 76 70 100 100 l43 53 -60 -56 c-74 -70 -136 -103 -179 -96 -68 11
-443 180 -650 292 -83 45 -250 106 -288 104 -12 0 5 -9 38 -19z"/>
<path d="M2280 8635 c7 -8 10 -24 7 -35 -6 -23 -3 -24 22 -8 15 9 25 7 52 -12
78 -55 200 -153 219 -177 22 -28 26 -73 10 -104 -8 -15 -7 -19 4 -19 9 0 20 9
26 20 16 29 41 25 89 -16 33 -28 41 -42 39 -63 -3 -24 0 -26 43 -31 29 -4 65
-19 103 -44 32 -21 86 -47 120 -58 33 -11 91 -35 127 -54 37 -19 70 -34 73
-34 11 0 6 29 -19 117 -14 48 -26 113 -26 145 -1 32 -4 58 -8 58 -4 0 -34 -32
-67 -71 -97 -117 -102 -122 -131 -114 -28 7 -143 85 -143 97 0 4 14 30 30 56
17 27 30 52 30 55 0 3 -18 3 -40 0 -36 -5 -53 2 -167 67 -71 40 -166 99 -213
130 -47 32 -104 69 -127 84 -48 30 -73 35 -53 11z"/>
<path d="M4260 8486 c-77 -51 -100 -76 -130 -134 -29 -55 -19 -66 13 -15 25
39 87 102 142 145 81 62 65 65 -25 4z"/>
<path d="M8531 6194 c0 -11 3 -14 6 -6 3 7 2 16 -1 19 -3 4 -6 -2 -5 -13z"/>
<path d="M8532 6135 c0 -16 2 -22 5 -12 2 9 2 23 0 30 -3 6 -5 -1 -5 -18z"/>
<path d="M8164 3906 c-29 -29 -34 -41 -34 -81 0 -65 39 -105 102 -105 24 0 54
7 66 16 26 18 52 65 52 94 0 34 -28 78 -60 95 -49 25 -88 19 -126 -19z m127
-25 c28 -28 40 -71 19 -71 -5 0 -16 14 -25 30 -9 17 -21 31 -28 31 -6 1 -19 3
-27 4 -8 1 -21 3 -29 4 -11 1 -11 4 -1 16 20 24 59 18 91 -14z"/>
<path d="M8164 3421 c-62 -38 -68 -129 -12 -176 60 -51 156 -24 177 50 26 97
-81 179 -165 126z m111 -46 c23 -22 35 -76 18 -75 -5 1 -17 15 -28 33 -15 23
-28 32 -47 32 -31 1 -43 9 -33 24 12 20 65 12 90 -14z"/>
<path d="M11759 10753 c-3 -104 4 -250 13 -261 19 -22 81 -11 95 18 13 26 18
214 7 244 -5 12 -20 16 -60 16 -45 0 -54 -3 -55 -17z"/>
<path d="M3716 9642 c-11 -18 -8 -529 3 -550 11 -21 18 -22 177 -22 l165 0 12
29 c9 20 11 98 7 287 l-5 259 -177 3 c-97 1 -179 -1 -182 -6z m302 -114 l-3
-73 -125 0 -125 0 -3 59 c-2 32 -1 65 2 72 4 11 34 14 131 14 l126 0 -3 -72z
m-60 -202 c13 -11 30 -33 38 -48 13 -25 12 -32 -6 -69 -43 -84 -149 -89 -190
-9 -27 53 -25 69 10 112 43 52 100 58 148 14z"/>
<path d="M3862 9270 c-16 -26 4 -62 32 -58 28 4 44 34 30 56 -16 25 -47 26
-62 2z"/>
</g>
</svg>
